<?xml version="1.0" encoding="utf-8"?>
<!-- Generator: Adobe Illustrator 16.0.4, SVG Export Plug-In . SVG Version: 6.00 Build 0)  -->
<!DOCTYPE svg PUBLIC "-//W3C//DTD SVG 1.1//EN" "http://www.w3.org/Graphics/SVG/1.1/DTD/svg11.dtd">
<svg version="1.1" id="Layer_1" xmlns="http://www.w3.org/2000/svg" xmlns:xlink="http://www.w3.org/1999/xlink" x="0px" y="0px"
	 width="677.09px" height="347.11px" viewBox="0 0 677.09 347.11" enable-background="new 0 0 677.09 347.11" xml:space="preserve">
<g>
	<g>
		<polygon fill="#75787B" points="549.461,61.931 549.988,64.866 535.09,70.438 548.617,69.822 533.219,84.283 519.896,78.349 
			518.092,68.332 		"/>
		<path fill="#919395" d="M470.354,63.132l0.029-0.006c-1.408-7.814-13.008-13.188-31.543-15.933l0.707-0.128l32.518-27.877
			C468.268-1.877,394.83-6.273,308.037,9.371C221.244,25.015,153.962,54.773,157.76,75.839l40.203,14.771l0.707-0.127
			c-16.41,9.041-25.404,18.127-23.995,25.943l0.03-0.007C66,149.708-5.457,191.231,0.327,223.312l670.751-120.898l-4.129-5.336
			l-37.5,5.208c0,0-52.055-4.221-78.904-6.665c-1.73-0.158-7.834-9.576-9.604-9.717c-1.859-0.148-10.145-6.535-12.047-6.666
			c-1.141-0.078,20.877-9.344,19.723-9.415c-1.738-0.107-13.291-1.374-15.062-1.468c-2.895-0.151,18.889-6.314,15.906-6.424
			c-3.633-0.137-7.326-0.242-11.082-0.318C517.455,61.187,494.637,61.685,470.354,63.132z"/>
		<path fill="#919395" d="M356.055,275.774c185.223-33.385,328.807-96.893,320.705-141.851L6.006,254.822
			C14.109,299.779,170.831,309.161,356.055,275.774z"/>
		<path opacity="0.4" fill="#75787B" d="M204.613,219.024L6.006,254.822c8.103,44.957,164.824,54.339,350.048,20.952
			c24.367-4.392,48.012-9.305,70.686-14.629C306.542,274.646,211.65,258.067,204.613,219.024z"/>
		
			<rect x="-2.238" y="162.608" transform="matrix(0.9841 -0.1774 0.1774 0.9841 -26.3152 62.8849)" fill="#43484E" width="681.562" height="32.019"/>
		
			<rect x="-4.867" y="162.843" transform="matrix(0.9841 -0.1774 0.1774 0.9841 -23.7693 62.1871)" opacity="0.3" fill="#43484E" width="681.561" height="2.372"/>
		
			<rect x="0.392" y="192.021" transform="matrix(0.9841 -0.1774 0.1774 0.9841 -28.8614 63.5826)" opacity="0.3" fill="#43484E" width="681.562" height="2.371"/>
		<g opacity="0.4">
			<path fill="#75787B" d="M297.702,94.251l-0.019,0.003c-1.408-7.813,3.396-16.146,12.696-23.905l-0.42,0.074l-25.408-17.436
				c-3.202-17.764,23.78-38.034,63.179-49.518c-12.757,1.48-26.06,3.443-39.694,5.901C221.244,25.015,153.962,54.773,157.76,75.839
				l40.203,14.771l0.707-0.127c-16.41,9.041-25.404,18.127-23.995,25.943l0.03-0.007C66,149.708-5.457,191.231,0.327,223.312
				l199.315-35.925C193.86,155.308,234.204,119.39,297.702,94.251z"/>
		</g>
		<path fill="#919395" d="M31.386,242.014c0.291,1.611-0.765,3.151-2.356,3.438l-15.375,2.771c-1.592,0.287-3.118-0.786-3.408-2.398
			l-2.805-15.561c-0.291-1.611,0.765-3.15,2.356-3.438l15.375-2.771c1.592-0.288,3.118,0.786,3.409,2.397L31.386,242.014z"/>
		<path fill="#919395" d="M61.78,236.536c0.291,1.61-0.765,3.15-2.356,3.438l-15.375,2.77c-1.592,0.287-3.118-0.785-3.409-2.397
			l-2.804-15.562c-0.291-1.61,0.764-3.149,2.356-3.436l15.375-2.771c1.592-0.287,3.118,0.785,3.408,2.398L61.78,236.536z"/>
		<path fill="#919395" d="M92.173,231.058c0.29,1.611-0.765,3.15-2.357,3.438l-15.375,2.771c-1.592,0.287-3.118-0.787-3.409-2.398
			l-2.805-15.561c-0.291-1.612,0.765-3.15,2.356-3.438l15.375-2.771c1.592-0.287,3.119,0.786,3.409,2.397L92.173,231.058z"/>
		<path fill="#919395" d="M122.567,225.579c0.29,1.611-0.766,3.15-2.357,3.438l-15.375,2.771c-1.592,0.287-3.118-0.787-3.409-2.398
			l-2.804-15.561c-0.291-1.612,0.765-3.15,2.356-3.438l15.375-2.771c1.592-0.287,3.118,0.787,3.409,2.398L122.567,225.579z"/>
		<path fill="#919395" d="M152.959,220.101c0.29,1.612-0.765,3.15-2.356,3.438l-15.375,2.771c-1.593,0.288-3.118-0.787-3.409-2.397
			l-2.804-15.562c-0.291-1.61,0.764-3.149,2.356-3.438l15.375-2.771c1.592-0.287,3.118,0.787,3.409,2.398L152.959,220.101z"/>
		<path fill="#919395" d="M183.353,214.623c0.29,1.612-0.766,3.149-2.357,3.438l-15.375,2.771c-1.592,0.288-3.119-0.787-3.409-2.397
			l-2.805-15.562c-0.291-1.611,0.765-3.149,2.357-3.438l15.375-2.771c1.592-0.286,3.118,0.787,3.409,2.398L183.353,214.623z"/>
		<path fill="#919395" d="M213.746,209.145c0.291,1.612-0.765,3.151-2.357,3.437l-15.375,2.771
			c-1.592,0.288-3.118-0.785-3.408-2.397l-2.806-15.561c-0.29-1.612,0.765-3.151,2.357-3.438l15.374-2.771
			c1.593-0.286,3.119,0.786,3.409,2.397L213.746,209.145z"/>
		<path fill="#919395" d="M244.139,203.667c0.291,1.611-0.765,3.15-2.357,3.438l-15.375,2.771c-1.592,0.286-3.119-0.787-3.408-2.399
			l-2.805-15.561c-0.29-1.611,0.765-3.151,2.357-3.438l15.375-2.77c1.592-0.287,3.118,0.785,3.409,2.398L244.139,203.667z"/>
		<path fill="#919395" d="M274.532,198.188c0.291,1.611-0.765,3.151-2.357,3.438l-15.375,2.771
			c-1.592,0.288-3.118-0.785-3.408-2.397l-2.805-15.561c-0.291-1.612,0.765-3.152,2.356-3.438l15.375-2.771
			c1.593-0.286,3.119,0.785,3.41,2.398L274.532,198.188z"/>
		<path fill="#919395" d="M304.925,192.711c0.29,1.61-0.765,3.15-2.357,3.438l-15.375,2.771c-1.593,0.287-3.118-0.787-3.409-2.398
			l-2.805-15.561c-0.291-1.612,0.764-3.15,2.356-3.438l15.375-2.771c1.593-0.287,3.119,0.787,3.409,2.398L304.925,192.711z"/>
		<path fill="#919395" d="M335.319,187.231c0.29,1.612-0.766,3.151-2.357,3.438l-15.375,2.771c-1.592,0.287-3.119-0.786-3.409-2.397
			l-2.805-15.561c-0.291-1.612,0.765-3.15,2.356-3.438l15.375-2.771c1.592-0.288,3.118,0.786,3.409,2.397L335.319,187.231z"/>
		<path fill="#919395" d="M365.711,181.754c0.291,1.611-0.764,3.15-2.357,3.438l-15.373,2.771c-1.592,0.287-3.119-0.786-3.41-2.399
			l-2.803-15.56c-0.291-1.612,0.764-3.15,2.355-3.438l15.375-2.771c1.592-0.288,3.119,0.787,3.408,2.397L365.711,181.754z"/>
		<path fill="#919395" d="M396.105,176.275c0.289,1.611-0.766,3.151-2.357,3.438l-15.375,2.771
			c-1.592,0.287-3.119-0.786-3.408-2.398l-2.805-15.561c-0.291-1.611,0.764-3.151,2.355-3.438l15.375-2.771
			c1.592-0.286,3.119,0.787,3.41,2.397L396.105,176.275z"/>
		<path fill="#919395" d="M426.498,170.798c0.291,1.611-0.764,3.15-2.357,3.438l-15.375,2.771c-1.592,0.286-3.117-0.787-3.408-2.398
			l-2.805-15.562c-0.291-1.61,0.764-3.149,2.357-3.436l15.375-2.771c1.592-0.287,3.117,0.786,3.408,2.397L426.498,170.798z"/>
		<path fill="#919395" d="M456.891,165.319c0.291,1.611-0.764,3.15-2.357,3.438l-15.373,2.771c-1.592,0.287-3.119-0.787-3.41-2.398
			l-2.805-15.561c-0.289-1.611,0.766-3.15,2.357-3.438l15.375-2.771c1.592-0.286,3.117,0.786,3.408,2.398L456.891,165.319z"/>
		<path fill="#919395" d="M487.283,159.842c0.291,1.61-0.764,3.15-2.355,3.438l-15.375,2.771c-1.592,0.287-3.119-0.786-3.408-2.398
			l-2.805-15.561c-0.291-1.612,0.764-3.15,2.355-3.437l15.375-2.771c1.592-0.288,3.119,0.786,3.41,2.397L487.283,159.842z"/>
		<path fill="#919395" d="M517.678,154.363c0.291,1.612-0.766,3.15-2.357,3.438l-15.375,2.771c-1.592,0.287-3.119-0.787-3.408-2.398
			l-2.805-15.562c-0.291-1.611,0.764-3.149,2.357-3.437l15.373-2.772c1.594-0.286,3.119,0.787,3.41,2.399L517.678,154.363z"/>
		<path fill="#919395" d="M548.07,148.885c0.291,1.612-0.766,3.15-2.355,3.438l-15.375,2.771c-1.594,0.288-3.119-0.785-3.41-2.396
			l-2.805-15.562c-0.289-1.612,0.766-3.15,2.357-3.438l15.375-2.771c1.592-0.287,3.117,0.786,3.408,2.398L548.07,148.885z"/>
		<path fill="#919395" d="M578.465,143.407c0.289,1.611-0.766,3.15-2.357,3.437l-15.375,2.771c-1.592,0.287-3.119-0.786-3.408-2.397
			l-2.805-15.562c-0.291-1.611,0.764-3.149,2.355-3.438l15.375-2.771c1.592-0.286,3.119,0.788,3.408,2.399L578.465,143.407z"/>
		<path fill="#919395" d="M608.857,137.929c0.289,1.611-0.766,3.15-2.357,3.438l-15.375,2.771c-1.592,0.286-3.117-0.786-3.408-2.398
			l-2.805-15.561c-0.291-1.612,0.764-3.15,2.355-3.438l15.375-2.771c1.592-0.287,3.119,0.786,3.41,2.398L608.857,137.929z"/>
		<path fill="#919395" d="M639.25,132.45c0.291,1.611-0.766,3.151-2.357,3.438l-15.373,2.771c-1.594,0.287-3.119-0.787-3.41-2.398
			l-2.805-15.561c-0.291-1.612,0.766-3.15,2.357-3.438l15.375-2.771c1.592-0.286,3.117,0.786,3.408,2.398L639.25,132.45z"/>
		<path fill="#919395" d="M669.643,126.973c0.291,1.61-0.764,3.15-2.355,3.438l-15.375,2.771c-1.594,0.287-3.119-0.786-3.408-2.396
			l-2.807-15.562c-0.289-1.611,0.766-3.15,2.357-3.437l15.375-2.771c1.592-0.286,3.119,0.786,3.408,2.397L669.643,126.973z"/>
		<path fill="#796E65" d="M666.875,125.614c0.225,1.239-0.588,2.422-1.811,2.643l-11.822,2.131
			c-1.225,0.221-2.396-0.604-2.621-1.844l-2.156-11.965c-0.223-1.237,0.588-2.421,1.812-2.642l11.822-2.13
			c1.223-0.222,2.396,0.604,2.619,1.843L666.875,125.614z"/>
		<path fill="#796E65" d="M636.482,131.092c0.223,1.239-0.588,2.423-1.812,2.644l-11.82,2.13c-1.225,0.221-2.398-0.604-2.621-1.844
			l-2.156-11.963c-0.225-1.239,0.588-2.423,1.812-2.644l11.82-2.13c1.225-0.222,2.398,0.604,2.621,1.844L636.482,131.092z"/>
		<path fill="#75787B" d="M606.09,136.571c0.223,1.238-0.588,2.42-1.812,2.642l-11.82,2.131c-1.225,0.222-2.398-0.604-2.621-1.843
			l-2.156-11.965c-0.225-1.238,0.588-2.422,1.812-2.643l11.82-2.131c1.225-0.22,2.396,0.604,2.621,1.845L606.09,136.571z"/>
		<path fill="#ADDC91" d="M575.695,142.05c0.225,1.238-0.588,2.42-1.811,2.642l-11.822,2.13c-1.225,0.222-2.396-0.604-2.621-1.842
			l-2.156-11.965c-0.223-1.239,0.588-2.423,1.812-2.643l11.822-2.131c1.223-0.22,2.396,0.604,2.619,1.844L575.695,142.05z"/>
		<path fill="#ADDC91" d="M545.303,147.526c0.223,1.24-0.588,2.422-1.812,2.643l-11.82,2.131c-1.225,0.221-2.398-0.604-2.621-1.843
			l-2.156-11.964c-0.223-1.239,0.588-2.422,1.812-2.644l11.82-2.13c1.225-0.221,2.398,0.604,2.621,1.844L545.303,147.526z"/>
		<path fill="#75787B" d="M514.91,153.005c0.223,1.239-0.588,2.422-1.812,2.644l-11.82,2.129c-1.225,0.222-2.398-0.604-2.621-1.843
			l-2.156-11.963c-0.225-1.24,0.588-2.423,1.812-2.644l11.82-2.13c1.225-0.222,2.396,0.604,2.621,1.843L514.91,153.005z"/>
		<path fill="#ADDC91" d="M484.516,158.483c0.225,1.239-0.586,2.422-1.811,2.642l-11.822,2.131
			c-1.225,0.222-2.396-0.604-2.619-1.843l-2.158-11.964c-0.223-1.238,0.588-2.423,1.814-2.643l11.82-2.13
			c1.223-0.222,2.396,0.604,2.619,1.843L484.516,158.483z"/>
		<path fill="#75787B" d="M454.123,163.962c0.223,1.238-0.588,2.422-1.811,2.641l-11.822,2.133c-1.225,0.22-2.396-0.604-2.621-1.844
			l-2.156-11.964c-0.223-1.239,0.588-2.423,1.812-2.643l11.822-2.132c1.223-0.221,2.396,0.605,2.619,1.844L454.123,163.962z"/>
		<path fill="#ADDC91" d="M423.73,169.44c0.223,1.238-0.588,2.422-1.812,2.642l-11.82,2.13c-1.225,0.221-2.398-0.604-2.621-1.843
			l-2.156-11.964c-0.223-1.24,0.588-2.422,1.812-2.643l11.82-2.131c1.225-0.221,2.396,0.604,2.621,1.844L423.73,169.44z"/>
		<path fill="#ADDC91" d="M393.338,174.918c0.223,1.238-0.588,2.421-1.812,2.643l-11.82,2.13c-1.227,0.221-2.398-0.604-2.621-1.843
			l-2.156-11.965c-0.225-1.238,0.586-2.422,1.811-2.642l11.822-2.131c1.225-0.221,2.396,0.605,2.619,1.844L393.338,174.918z"/>
		<path fill="#ADDC91" d="M362.943,180.396c0.225,1.237-0.588,2.421-1.811,2.643l-11.822,2.13c-1.225,0.221-2.396-0.604-2.621-1.843
			l-2.156-11.964c-0.223-1.239,0.588-2.423,1.812-2.644l11.822-2.13c1.223-0.221,2.396,0.604,2.619,1.844L362.943,180.396z"/>
		<path fill="#ADDC91" d="M332.551,185.874c0.224,1.239-0.587,2.422-1.812,2.643l-11.821,2.131
			c-1.225,0.221-2.398-0.604-2.622-1.844l-2.156-11.963c-0.223-1.239,0.588-2.423,1.813-2.644l11.821-2.131
			c1.224-0.221,2.397,0.604,2.62,1.844L332.551,185.874z"/>
		<path fill="#ADDC91" d="M302.158,191.353c0.223,1.239-0.588,2.422-1.812,2.643l-11.821,2.13c-1.225,0.222-2.397-0.604-2.621-1.843
			l-2.157-11.965c-0.223-1.238,0.588-2.421,1.812-2.642l11.821-2.132c1.224-0.22,2.397,0.605,2.62,1.844L302.158,191.353z"/>
		<path fill="#ADDC91" d="M271.764,196.83c0.224,1.239-0.587,2.422-1.812,2.642l-11.821,2.132c-1.225,0.222-2.397-0.604-2.621-1.844
			l-2.156-11.964c-0.224-1.238,0.588-2.422,1.812-2.642l11.821-2.132c1.224-0.221,2.397,0.604,2.621,1.845L271.764,196.83z"/>
		<path fill="#ADDC91" d="M241.372,202.309c0.223,1.239-0.588,2.421-1.812,2.642l-11.82,2.132c-1.225,0.22-2.398-0.604-2.621-1.845
			l-2.156-11.963c-0.224-1.238,0.587-2.422,1.812-2.643l11.821-2.131c1.225-0.221,2.397,0.604,2.62,1.845L241.372,202.309z"/>
		<path fill="#ADDC91" d="M210.978,207.787c0.223,1.238-0.588,2.421-1.812,2.642l-11.821,2.131
			c-1.225,0.221-2.398-0.604-2.621-1.844l-2.156-11.963c-0.224-1.239,0.588-2.423,1.812-2.643l11.821-2.131
			c1.224-0.222,2.397,0.604,2.621,1.844L210.978,207.787z"/>
		<path fill="#ADDC91" d="M180.585,213.265c0.224,1.239-0.587,2.422-1.812,2.643l-11.821,2.131
			c-1.225,0.221-2.398-0.605-2.622-1.844l-2.156-11.963c-0.223-1.24,0.587-2.423,1.812-2.644l11.821-2.131
			c1.224-0.221,2.397,0.605,2.621,1.843L180.585,213.265z"/>
		<path fill="#ADDC91" d="M150.192,218.743c0.223,1.238-0.588,2.422-1.812,2.642l-11.82,2.131c-1.225,0.221-2.397-0.604-2.621-1.843
			l-2.156-11.965c-0.224-1.237,0.587-2.421,1.812-2.642l11.821-2.13c1.225-0.221,2.397,0.604,2.621,1.842L150.192,218.743z"/>
		<path fill="#ADDC91" d="M119.799,224.22c0.223,1.24-0.588,2.424-1.812,2.645l-11.821,2.129c-1.225,0.222-2.397-0.604-2.621-1.842
			l-2.156-11.964c-0.224-1.239,0.588-2.423,1.812-2.643l11.821-2.131c1.224-0.221,2.397,0.604,2.621,1.843L119.799,224.22z"/>
		<path fill="#ADDC91" d="M89.406,229.7c0.223,1.238-0.588,2.422-1.812,2.641l-11.82,2.131c-1.225,0.222-2.398-0.604-2.621-1.843
			l-2.157-11.964c-0.223-1.238,0.588-2.422,1.812-2.643l11.821-2.131c1.224-0.221,2.397,0.604,2.62,1.844L89.406,229.7z"/>
		<path fill="#ADDC91" d="M59.012,235.177c0.224,1.24-0.588,2.424-1.812,2.644l-11.821,2.13c-1.225,0.221-2.397-0.604-2.621-1.843
			l-2.157-11.964c-0.223-1.24,0.588-2.422,1.813-2.643l11.821-2.131c1.224-0.221,2.397,0.604,2.621,1.844L59.012,235.177z"/>
		<path fill="#ADDC91" d="M28.62,240.656c0.223,1.237-0.589,2.421-1.812,2.642l-11.82,2.131c-1.225,0.221-2.398-0.604-2.622-1.844
			l-2.156-11.963c-0.224-1.24,0.588-2.423,1.813-2.643l11.82-2.131c1.224-0.222,2.397,0.604,2.62,1.844L28.62,240.656z"/>
		<path fill="#919395" d="M205.726,344.033c-0.934,1.347-2.781,1.679-4.126,0.744l-3.951-2.744
			c-1.345-0.935-1.678-2.782-0.744-4.126l40.141-57.792c0.934-1.344,2.781-1.677,4.126-0.743l3.951,2.744
			c1.345,0.936,1.678,2.781,0.743,4.127L205.726,344.033z"/>
		<path opacity="0.4" fill="#75787B" d="M205.726,344.033c-0.934,1.347-2.781,1.679-4.126,0.744l-3.951-2.744
			c-1.345-0.935-1.678-2.782-0.744-4.126l40.141-57.792c0.934-1.344,2.781-1.677,4.126-0.743l3.951,2.744
			c1.345,0.936,1.678,2.781,0.743,4.127L205.726,344.033z"/>
		<path fill="#919395" d="M369.68,321.095c0.291,1.611-0.781,3.153-2.393,3.443l-4.734,0.854c-1.611,0.29-3.152-0.78-3.443-2.393
			l-12.48-69.246c-0.291-1.613,0.779-3.154,2.391-3.443l4.734-0.854c1.613-0.291,3.152,0.778,3.443,2.391L369.68,321.095z"/>
		<path fill="#919395" d="M494.924,268.386c0,0,4.715-4.25,2.965-5.613s0-1.637,0-1.637l2.221-1.301l-31.02-21.543
			c-1.344-0.935-3.191-0.602-4.125,0.744l-2.744,3.95c-0.936,1.345-0.602,3.192,0.742,4.126l31.396,21.807L494.924,268.386z"/>
		<path opacity="0.6" fill="#43484E" d="M412.639,61.931c3-1.295-26.709,31.705-26.709,31.705l18.209-7l5.518,26.755l19.482-10.978
			l3.76,14.836c0,0,34.24,4.461,39.24,2.674s3.887-36.787,15.193-38.787s16.307-17,16.307-17l-6.605-2.232
			c-3.203,0.102-6.438,0.223-9.701,0.361c-5.574,0.235-11.234,0.524-16.979,0.867l0.029-0.006
			c-1.408-7.814-13.008-13.188-31.543-15.933l0.707-0.128l3.844-3.296l-19.623-6.634c0,0-5.129-6.5-24.629-5.5s-40.984-13-40.984-13
			l16.736,28.5C374.891,47.136,409.639,63.226,412.639,61.931z"/>
		<polygon opacity="0.6" fill="#43484E" points="409.656,9.636 420.139,22.636 426.74,45.136 439.547,47.065 468.551,22.2 
			461.139,13.136 460.389,18.636 435.676,18.636 		"/>
		<path fill="#43484E" d="M428.805,53.97l-5.037,12.333c0,0,9.99-3.176,11.666-4.167c-2.035,2.14-16.629,20.167-16.629,20.167
			s16.742-8.06,16.871-9.196s5.797,9.196,5.797,9.196l0.332,7.334l3.113,2.333V81.303l6.01-3.666l8.545-8.146l9.078,5.146l-2.482,12
			l12.07-4.334l9.193-9.196V62.268c-5.576,0.237-11.232,0.521-16.979,0.864l0.029-0.006c-1.408-7.814-13.008-13.188-31.543-15.933
			l0.707-0.128l10.785-9.246l-9.859-0.85l-4.797-8.619v12.811l-15.203,5.904l-5.947-1.429l4.279,8.333H428.805z"/>
	</g>
	
		<ellipse transform="matrix(0.9841 -0.1774 0.1774 0.9841 -52.0946 69.9451)" fill="#919395" cx="365.17" cy="326.348" rx="21.084" ry="3.686"/>
	
		<ellipse transform="matrix(0.9841 -0.1774 0.1774 0.9841 -57.448 41.1955)" fill="#919395" cx="201.68" cy="341.901" rx="21.083" ry="3.686"/>
	
		<ellipse transform="matrix(0.9841 -0.1774 0.1774 0.9841 -57.448 41.1955)" opacity="0.4" fill="#75787B" cx="201.68" cy="341.901" rx="21.083" ry="3.686"/>
</g>
</svg>
