<?xml version="1.0" encoding="utf-8"?>
<!-- Generator: Adobe Illustrator 16.0.4, SVG Export Plug-In . SVG Version: 6.00 Build 0)  -->
<!DOCTYPE svg PUBLIC "-//W3C//DTD SVG 1.1//EN" "http://www.w3.org/Graphics/SVG/1.1/DTD/svg11.dtd">
<svg version="1.1" id="Layer_1" xmlns="http://www.w3.org/2000/svg" xmlns:xlink="http://www.w3.org/1999/xlink" x="0px" y="0px"
	 width="157.253px" height="111.391px" viewBox="0 0 157.253 111.391" enable-background="new 0 0 157.253 111.391"
	 xml:space="preserve">
<g>
	<g>
		
			<rect x="3.626" y="5.626" transform="matrix(0.997 0.077 -0.077 0.997 4.5162 -5.8885)" fill="#948B84" width="150" height="100"/>
	</g>
	<line fill="#E3E4E5" stroke="#796E65" stroke-miterlimit="10" x1="6.159" y1="19.941" x2="155.713" y2="31.488"/>
	<line fill="#E3E4E5" stroke="#796E65" stroke-miterlimit="10" x1="4.619" y1="39.881" x2="154.174" y2="51.429"/>
	<line fill="#E3E4E5" stroke="#796E65" stroke-miterlimit="10" x1="3.08" y1="59.822" x2="152.634" y2="71.37"/>
	<line fill="#E3E4E5" stroke="#796E65" stroke-miterlimit="10" x1="1.539" y1="79.763" x2="151.095" y2="91.31"/>
	<g>
		<path fill="#BABBBD" d="M77.808,60.964C69.561,60.328,63.37,53.1,64.006,44.852c0.637-8.246,7.864-14.436,16.111-13.799
			c8.246,0.637,14.437,7.863,13.801,16.109C93.281,55.409,86.053,61.601,77.808,60.964z"/>
		<circle fill="#BCB6B2" cx="79.446" cy="46.044" r="13.686"/>
		<path opacity="0.2" fill="#75787B" d="M80.663,33.117c3.59,0.277,6.746,1.918,9.007,4.372c-2.285-2.87-5.706-4.821-9.652-5.125
			c-7.539-0.583-14.119,5.055-14.701,12.591c-0.305,3.949,1.098,7.632,3.584,10.33c-2.079-2.612-3.215-5.984-2.938-9.576
			C66.544,38.172,73.124,32.535,80.663,33.117z"/>
		<path fill="#43484E" d="M84.307,42.407c0.192-2.515-1.687-4.71-4.202-4.905c-2.514-0.194-4.71,1.687-4.905,4.201
			c-0.13,1.693,0.681,3.237,1.991,4.128l-1.913,8.487l7.017,0.542l-0.588-8.68C83.138,45.501,84.176,44.099,84.307,42.407z"/>
		<g>
			<path fill="#75787B" d="M76.612,45.363c-0.571-0.829-0.875-1.852-0.791-2.936c0.194-2.514,2.389-4.396,4.905-4.201
				c1.085,0.083,2.053,0.542,2.786,1.237c-0.755-1.094-1.979-1.851-3.407-1.961c-2.514-0.194-4.71,1.687-4.905,4.201
				C75.09,43.129,75.651,44.45,76.612,45.363z"/>
			<path fill="#75787B" d="M77.811,46.555c-0.237-0.162-0.458-0.345-0.659-0.546l-1.874,8.309l0.769,0.06L77.811,46.555z"/>
		</g>
	</g>
	
		<rect x="26.275" y="1.776" transform="matrix(0.997 0.0769 -0.0769 0.997 4.0691 -2.0606)" fill="#BCB6B2" width="5.001" height="100.001"/>
	
		<rect x="31.267" y="2.008" transform="matrix(0.9969 0.0782 -0.0782 0.9969 4.1638 -2.3246)" fill="#796E65" width="0.999" height="100"/>
	
		<rect x="130.969" y="9.706" transform="matrix(0.9969 0.0781 -0.0781 0.9969 5.0656 -10.0873)" fill="#796E65" width="1" height="99.999"/>
	
		<rect x="125.978" y="9.475" transform="matrix(0.997 0.077 -0.077 0.997 4.9575 -9.7101)" fill="#BCB6B2" width="5" height="99.999"/>
</g>
</svg>
