<?xml version="1.0" encoding="utf-8"?>
<!-- Generator: Adobe Illustrator 16.0.4, SVG Export Plug-In . SVG Version: 6.00 Build 0)  -->
<!DOCTYPE svg PUBLIC "-//W3C//DTD SVG 1.1//EN" "http://www.w3.org/Graphics/SVG/1.1/DTD/svg11.dtd">
<svg version="1.1" id="Layer_1" xmlns="http://www.w3.org/2000/svg" xmlns:xlink="http://www.w3.org/1999/xlink" x="0px" y="0px"
	 width="633.667px" height="337.5px" viewBox="0 0 633.667 337.5" enable-background="new 0 0 633.667 337.5" xml:space="preserve">
<g>
	<g>
		<rect y="112.5" fill="#919395" width="112.5" height="112.5"/>
		<rect x="30" y="150" fill="#7FB8E6" width="7.5" height="7.5"/>
		<rect x="22.5" y="150" fill="#CCE3F5" width="7.5" height="7.5"/>
		<rect x="15" y="150" fill="#CCE3F5" width="7.5" height="7.5"/>
		<rect x="37.5" y="150" fill="#328ED8" width="7.5" height="7.5"/>
		<rect x="45" y="150" fill="#328ED8" width="7.5" height="7.5"/>
		<rect x="60" y="134.999" fill="#328ED8" width="7.5" height="7.5"/>
		<rect x="30" y="142.5" fill="#CCD5E3" width="7.5" height="7.5"/>
		<rect x="30" y="180" fill="#CCD5E3" width="7.5" height="7.5"/>
		<rect x="37.5" y="142.5" fill="#7FB8E6" width="7.5" height="7.5"/>
		<rect x="75" y="187.5" fill="#7FB8E6" width="7.5" height="7.5"/>
		<rect x="67.5" y="187.5" fill="#CCE3F5" width="7.5" height="7.5"/>
		<rect x="82.5" y="187.5" fill="#328ED8" width="7.5" height="7.5"/>
		<rect x="90" y="187.5" fill="#328ED8" width="7.5" height="7.5"/>
		<rect x="67.501" y="195" fill="#328ED8" width="7.5" height="7.5"/>
		<rect x="75.001" y="195" fill="#328ED8" width="7.5" height="7.5"/>
		<rect x="75" y="180" fill="#CCD5E3" width="7.5" height="7.5"/>
		<rect x="82.5" y="180" fill="#7FB8E6" width="7.5" height="7.5"/>
		<rect x="52.5" y="187.5" fill="#CCD5E3" width="7.5" height="7.5"/>
		<rect x="60" y="187.5" fill="#7FB8E6" width="7.5" height="7.5"/>
		<g>
			<rect x="67.5" y="158" fill="#328ED8" width="7.5" height="7.5"/>
			<rect x="75" y="158" fill="#328ED8" width="7.5" height="7.5"/>
		</g>
		<g>
			<rect x="67.5" y="150.5" fill="#CCD5E3" width="7.5" height="7.5"/>
			<rect x="75" y="150.5" fill="#7FB8E6" width="7.5" height="7.5"/>
		</g>
		<rect x="15" y="127.499" fill="#CCD5E3" width="7.5" height="7.5"/>
		<rect x="22.5" y="127.499" fill="#7FB8E6" width="7.5" height="7.5"/>
		<rect x="15" y="202.5" fill="#CCD5E3" width="7.5" height="7.5"/>
		<rect x="22.5" y="202.5" fill="#7FB8E6" width="7.5" height="7.5"/>
		<g>
			<rect x="82.5" y="127.499" fill="#CCD5E3" width="7.5" height="7.5"/>
			<rect x="90" y="127.499" fill="#7FB8E6" width="7.5" height="7.5"/>
		</g>
	</g>
	<g>
		<rect y="225" fill="#919395" width="112.5" height="112.498"/>
		<rect x="30" y="262.5" fill="#7FB8E6" width="7.5" height="7.5"/>
		<rect x="22.5" y="262.5" fill="#CCE3F5" width="7.5" height="7.5"/>
		<rect x="15" y="262.5" fill="#CCE3F5" width="7.5" height="7.5"/>
		<rect x="37.5" y="262.5" fill="#328ED8" width="7.5" height="7.5"/>
		<rect x="45" y="262.5" fill="#328ED8" width="7.5" height="7.5"/>
		<rect x="60" y="247.498" fill="#328ED8" width="7.5" height="7.5"/>
		<rect x="30" y="255" fill="#CCD5E3" width="7.5" height="7.5"/>
		<rect x="30" y="292.498" fill="#CCD5E3" width="7.5" height="7.5"/>
		<rect x="37.5" y="255" fill="#7FB8E6" width="7.5" height="7.5"/>
		<rect x="75" y="299.998" fill="#7FB8E6" width="7.5" height="7.5"/>
		<rect x="67.5" y="299.998" fill="#CCE3F5" width="7.5" height="7.5"/>
		<rect x="82.5" y="299.998" fill="#328ED8" width="7.5" height="7.5"/>
		<rect x="90" y="299.998" fill="#328ED8" width="7.5" height="7.5"/>
		<rect x="67.501" y="307.498" fill="#328ED8" width="7.5" height="7.5"/>
		<rect x="75.001" y="307.498" fill="#328ED8" width="7.5" height="7.5"/>
		<rect x="75" y="292.498" fill="#CCD5E3" width="7.5" height="7.5"/>
		<rect x="82.5" y="292.498" fill="#7FB8E6" width="7.5" height="7.5"/>
		<rect x="52.5" y="299.998" fill="#CCD5E3" width="7.5" height="7.5"/>
		<rect x="60" y="299.998" fill="#7FB8E6" width="7.5" height="7.5"/>
		<g>
			<rect x="67.5" y="270.5" fill="#328ED8" width="7.5" height="7.5"/>
			<rect x="75" y="270.5" fill="#328ED8" width="7.5" height="7.5"/>
		</g>
		<g>
			<rect x="67.5" y="263" fill="#CCD5E3" width="7.5" height="7.5"/>
			<rect x="75" y="263" fill="#7FB8E6" width="7.5" height="7.5"/>
		</g>
		<rect x="15" y="239.998" fill="#CCD5E3" width="7.5" height="7.5"/>
		<rect x="22.5" y="239.998" fill="#7FB8E6" width="7.5" height="7.5"/>
		<rect x="15" y="314.998" fill="#CCD5E3" width="7.5" height="7.5"/>
		<rect x="22.5" y="314.998" fill="#7FB8E6" width="7.5" height="7.5"/>
		<g>
			<rect x="82.5" y="239.998" fill="#CCD5E3" width="7.5" height="7.5"/>
			<rect x="90" y="239.998" fill="#7FB8E6" width="7.5" height="7.5"/>
		</g>
	</g>
	<g>
		<rect x="112.597" fill="#919395" width="112.5" height="112.5"/>
		<rect x="142.597" y="37.5" fill="#7FB8E6" width="7.5" height="7.5"/>
		<rect x="135.097" y="37.5" fill="#CCE3F5" width="7.5" height="7.5"/>
		<rect x="127.597" y="37.5" fill="#CCE3F5" width="7.5" height="7.5"/>
		<rect x="150.097" y="37.5" fill="#328ED8" width="7.5" height="7.5"/>
		<rect x="157.597" y="37.5" fill="#328ED8" width="7.5" height="7.5"/>
		<rect x="172.597" y="22.5" fill="#328ED8" width="7.5" height="7.5"/>
		<rect x="142.597" y="30" fill="#CCD5E3" width="7.5" height="7.5"/>
		<rect x="142.597" y="67.5" fill="#CCD5E3" width="7.5" height="7.5"/>
		<rect x="150.097" y="30" fill="#7FB8E6" width="7.5" height="7.5"/>
		<rect x="187.597" y="75" fill="#7FB8E6" width="7.5" height="7.5"/>
		<rect x="180.097" y="75" fill="#CCE3F5" width="7.5" height="7.5"/>
		<rect x="195.097" y="75" fill="#328ED8" width="7.5" height="7.5"/>
		<rect x="202.597" y="75" fill="#328ED8" width="7.5" height="7.5"/>
		<rect x="180.098" y="82.5" fill="#328ED8" width="7.5" height="7.5"/>
		<rect x="187.598" y="82.5" fill="#328ED8" width="7.5" height="7.5"/>
		<rect x="187.597" y="67.5" fill="#CCD5E3" width="7.5" height="7.5"/>
		<rect x="195.097" y="67.5" fill="#7FB8E6" width="7.5" height="7.5"/>
		<rect x="165.097" y="75" fill="#CCD5E3" width="7.5" height="7.5"/>
		<rect x="172.597" y="75" fill="#7FB8E6" width="7.5" height="7.5"/>
		<g>
			<rect x="180.097" y="45.5" fill="#328ED8" width="7.5" height="7.5"/>
			<rect x="187.597" y="45.5" fill="#328ED8" width="7.5" height="7.5"/>
		</g>
		<g>
			<rect x="180.097" y="38" fill="#CCD5E3" width="7.5" height="7.5"/>
			<rect x="187.597" y="38" fill="#7FB8E6" width="7.5" height="7.5"/>
		</g>
		<rect x="127.597" y="15" fill="#CCD5E3" width="7.5" height="7.5"/>
		<rect x="135.097" y="15" fill="#7FB8E6" width="7.5" height="7.5"/>
		<rect x="127.597" y="90" fill="#CCD5E3" width="7.5" height="7.5"/>
		<rect x="135.097" y="90" fill="#7FB8E6" width="7.5" height="7.5"/>
		<g>
			<rect x="195.097" y="15" fill="#CCD5E3" width="7.5" height="7.5"/>
			<rect x="202.597" y="15" fill="#7FB8E6" width="7.5" height="7.5"/>
		</g>
	</g>
	<g>
		<rect fill="#919395" width="112.5" height="112.5"/>
		<rect x="30" y="37.5" fill="#7FB8E6" width="7.5" height="7.5"/>
		<rect x="22.5" y="37.5" fill="#CCE3F5" width="7.5" height="7.5"/>
		<rect x="15" y="37.5" fill="#CCE3F5" width="7.5" height="7.5"/>
		<rect x="37.5" y="37.5" fill="#328ED8" width="7.5" height="7.5"/>
		<rect x="45" y="37.5" fill="#328ED8" width="7.5" height="7.5"/>
		<rect x="60" y="22.5" fill="#328ED8" width="7.5" height="7.5"/>
		<rect x="30" y="30" fill="#CCD5E3" width="7.5" height="7.5"/>
		<rect x="30" y="67.5" fill="#CCD5E3" width="7.5" height="7.5"/>
		<rect x="37.5" y="30" fill="#7FB8E6" width="7.5" height="7.5"/>
		<rect x="75" y="75" fill="#7FB8E6" width="7.5" height="7.5"/>
		<rect x="67.5" y="75" fill="#CCE3F5" width="7.5" height="7.5"/>
		<rect x="82.5" y="75" fill="#328ED8" width="7.5" height="7.5"/>
		<rect x="90" y="75" fill="#328ED8" width="7.5" height="7.5"/>
		<rect x="67.501" y="82.5" fill="#328ED8" width="7.5" height="7.5"/>
		<rect x="75.001" y="82.5" fill="#328ED8" width="7.5" height="7.5"/>
		<rect x="75" y="67.5" fill="#CCD5E3" width="7.5" height="7.5"/>
		<rect x="82.5" y="67.5" fill="#7FB8E6" width="7.5" height="7.5"/>
		<rect x="52.5" y="75" fill="#CCD5E3" width="7.5" height="7.5"/>
		<rect x="60" y="75" fill="#7FB8E6" width="7.5" height="7.5"/>
		<g>
			<rect x="67.5" y="45.5" fill="#328ED8" width="7.5" height="7.5"/>
			<rect x="75" y="45.5" fill="#328ED8" width="7.5" height="7.5"/>
		</g>
		<g>
			<rect x="67.5" y="38" fill="#CCD5E3" width="7.5" height="7.5"/>
			<rect x="75" y="38" fill="#7FB8E6" width="7.5" height="7.5"/>
		</g>
		<rect x="15" y="15" fill="#CCD5E3" width="7.5" height="7.5"/>
		<rect x="22.5" y="15" fill="#7FB8E6" width="7.5" height="7.5"/>
		<rect x="15" y="90" fill="#CCD5E3" width="7.5" height="7.5"/>
		<rect x="22.5" y="90" fill="#7FB8E6" width="7.5" height="7.5"/>
		<g>
			<rect x="82.5" y="15" fill="#CCD5E3" width="7.5" height="7.5"/>
			<rect x="90" y="15" fill="#7FB8E6" width="7.5" height="7.5"/>
		</g>
	</g>
	<g>
		<rect x="273.847" y="146.249" fill="#796E65" width="7.5" height="60.001"/>
		<rect x="281.347" y="146.249" fill="#948B84" width="7.5" height="60.001"/>
		<g>
			<rect x="273.847" y="138.749" fill="#FF931B" width="7.5" height="7.5"/>
			<rect x="281.347" y="138.749" fill="#FFB149" width="7.5" height="7.5"/>
			<rect x="273.847" y="131.249" fill="#FFCE8D" width="7.5" height="7.5"/>
			<rect x="281.347" y="131.249" fill="#FF931B" width="7.5" height="7.5"/>
		</g>
	</g>
</g>
<g>
	<rect x="135.097" y="270" fill="#F1F2F2" width="7.5" height="7.5"/>
	<rect x="127.597" y="270" fill="#F1F2F2" width="7.5" height="7.5"/>
	<rect x="127.597" y="277.5" fill="#F1F2F2" width="7.5" height="7.5"/>
	<rect x="120.097" y="270" fill="#F1F2F2" width="7.5" height="7.5"/>
	<rect x="120.097" y="277.5" fill="#F1F2F2" width="7.5" height="7.5"/>
	<rect x="120.097" y="307.5" fill="#BABBBD" width="7.5" height="7.5"/>
	<rect x="120.097" y="285" fill="#F1F2F2" width="7.5" height="22.5"/>
	<rect x="112.597" y="270" fill="#BABBBD" width="7.5" height="37.5"/>
	<rect x="127.597" y="285" fill="#BABBBD" width="7.5" height="22.5"/>
	<rect x="135.097" y="262.5" fill="#F1F2F2" width="7.5" height="7.5"/>
	<rect x="135.097" y="255" fill="#F1F2F2" width="7.5" height="7.5"/>
	<rect x="142.597" y="262.5" fill="#F1F2F2" width="7.5" height="7.5"/>
	<rect x="142.597" y="255" fill="#F1F2F2" width="7.5" height="7.5"/>
	<rect x="172.597" y="255" fill="#BABBBD" width="7.5" height="7.5"/>
	<rect x="150.097" y="255" fill="#F1F2F2" width="22.5" height="7.5"/>
	<rect x="135.097" y="247.5" fill="#BABBBD" width="37.5" height="7.5"/>
	<rect x="150.097" y="262.5" fill="#BABBBD" width="22.5" height="7.5"/>
	<rect x="135.097" y="277.5" fill="#796E65" width="7.5" height="7.5"/>
	<rect x="142.597" y="277.5" fill="#948B84" width="7.5" height="7.5"/>
	<rect x="142.597" y="270" fill="#796E65" width="7.5" height="7.5"/>
	<rect x="142.597" y="285" fill="#796E65" width="7.5" height="7.5"/>
	<rect x="150.097" y="285" fill="#948B84" width="7.5" height="7.5"/>
	<rect x="150.097" y="277.5" fill="#796E65" width="7.5" height="7.5"/>
	<rect x="120.097" y="255" fill="#948B84" width="7.5" height="7.5"/>
	<rect x="120.097" y="262.5" fill="#796E65" width="7.5" height="7.5"/>
	<rect x="127.597" y="262.5" fill="#948B84" width="7.5" height="7.5"/>
	<rect x="127.597" y="255" fill="#796E65" width="7.5" height="7.5"/>
	<rect x="150.097" y="292.5" fill="#796E65" width="7.5" height="7.5"/>
	<rect x="157.597" y="292.5" fill="#948B84" width="7.5" height="7.5"/>
	<rect x="157.597" y="285" fill="#796E65" width="7.5" height="7.5"/>
	<rect x="157.597" y="300" fill="#796E65" width="7.5" height="7.5"/>
	<rect x="165.097" y="300" fill="#948B84" width="7.5" height="7.5"/>
	<rect x="165.097" y="292.5" fill="#796E65" width="7.5" height="7.5"/>
	<rect x="165.097" y="307.5" fill="#796E65" width="7.5" height="7.5"/>
	<rect x="172.597" y="307.5" fill="#948B84" width="7.5" height="7.5"/>
	<rect x="172.597" y="300" fill="#796E65" width="7.5" height="7.5"/>
	<rect x="172.597" y="315" fill="#796E65" width="7.5" height="7.5"/>
	<rect x="180.097" y="315" fill="#948B84" width="7.5" height="7.5"/>
	<rect x="180.097" y="307.5" fill="#796E65" width="7.5" height="7.5"/>
	<rect x="180.097" y="322.5" fill="#796E65" width="7.5" height="7.5"/>
	<rect x="187.597" y="322.5" fill="#948B84" width="7.5" height="7.5"/>
	<rect x="187.597" y="315" fill="#796E65" width="7.5" height="7.5"/>
	<rect x="187.597" y="330" fill="#796E65" width="7.5" height="7.5"/>
	<rect x="195.097" y="330" fill="#948B84" width="7.5" height="7.5"/>
	<rect x="195.097" y="322.5" fill="#796E65" width="7.5" height="7.5"/>
</g>
<g>
	<rect x="439.5" y="172.5" fill="#0072CE" width="60" height="75"/>
	<rect x="439.5" y="247.499" fill="#002D72" width="60" height="75"/>
	<rect x="439.5" y="318.749" fill="#796E65" width="60" height="18.749"/>
	<rect x="499.5" y="172.5" fill="#0072CE" width="30" height="30"/>
	<rect x="409.5" y="172.5" fill="#0072CE" width="30" height="30"/>
	<rect x="409.5" y="202.5" fill="#2CB34A" width="30" height="52.5"/>
	<rect x="499.5" y="180" fill="#2CB34A" width="30" height="30"/>
	<rect x="439.5" y="135" fill="#ADDC91" width="7.5" height="7.5"/>
	<rect x="447" y="135" fill="#ADDC91" width="7.5" height="7.5"/>
	<rect x="439.5" y="127.5" fill="#2CB34A" width="7.5" height="7.5"/>
	<rect x="447" y="127.5" fill="#ADDC91" width="7.5" height="7.5"/>
	<rect x="439.5" y="120" fill="#2CB34A" width="7.5" height="7.5"/>
	<rect x="447" y="120" fill="#2CB34A" width="7.5" height="7.5"/>
	<rect x="439.5" y="112.5" fill="#2CB34A" width="7.5" height="7.5"/>
	<rect x="447" y="112.5" fill="#2CB34A" width="7.5" height="7.5"/>
	<rect x="454.5" y="135" fill="#ADDC91" width="7.5" height="7.5"/>
	<rect x="462" y="135" fill="#ADDC91" width="7.5" height="7.5"/>
	<rect x="454.5" y="127.5" fill="#ADDC91" width="7.5" height="7.5"/>
	<rect x="462" y="127.5" fill="#ADDC91" width="7.5" height="7.5"/>
	<rect x="454.5" y="120" fill="#2CB34A" width="7.5" height="7.5"/>
	<rect x="462" y="120" fill="#2CB34A" width="7.5" height="7.5"/>
	<rect x="454.5" y="112.5" fill="#2CB34A" width="7.5" height="7.5"/>
	<rect x="462" y="112.5" fill="#2CB34A" width="7.5" height="7.5"/>
	<rect x="469.5" y="135" fill="#ADDC91" width="7.5" height="7.5"/>
	<rect x="477" y="135" fill="#ADDC91" width="7.5" height="7.5"/>
	<rect x="469.5" y="127.5" fill="#ADDC91" width="7.5" height="7.5"/>
	<rect x="477" y="127.5" fill="#ADDC91" width="7.5" height="7.5"/>
	<rect x="469.5" y="120" fill="#2CB34A" width="7.5" height="7.5"/>
	<rect x="477" y="120" fill="#2CB34A" width="7.5" height="7.5"/>
	<rect x="469.5" y="112.5" fill="#2CB34A" width="7.5" height="7.5"/>
	<rect x="477" y="112.5" fill="#2CB34A" width="7.5" height="7.5"/>
	<rect x="484.5" y="135" fill="#ADDC91" width="7.5" height="7.5"/>
	<rect x="492" y="135" fill="#ADDC91" width="7.5" height="7.5"/>
	<rect x="484.5" y="127.5" fill="#ADDC91" width="7.5" height="7.5"/>
	<rect x="492" y="127.5" fill="#2CB34A" width="7.5" height="7.5"/>
	<rect x="484.5" y="120" fill="#2CB34A" width="7.5" height="7.5"/>
	<rect x="492" y="120" fill="#2CB34A" width="7.5" height="7.5"/>
	<rect x="484.5" y="112.5" fill="#2CB34A" width="7.5" height="7.5"/>
	<rect x="492" y="112.5" fill="#2CB34A" width="7.5" height="7.5"/>
	<rect x="439.5" y="165" fill="#2CB34A" width="7.5" height="7.5"/>
	<rect x="447" y="165" fill="#2CB34A" width="7.5" height="7.5"/>
	<rect x="439.5" y="157.5" fill="#2CB34A" width="7.5" height="7.5"/>
	<rect x="447" y="157.5" fill="#2CB34A" width="7.5" height="7.5"/>
	<rect x="439.5" y="150" fill="#2CB34A" width="7.5" height="7.5"/>
	<rect x="447" y="150" fill="#ADDC91" width="7.5" height="7.5"/>
	<rect x="439.5" y="142.5" fill="#ADDC91" width="7.5" height="7.5"/>
	<rect x="447" y="142.5" fill="#101820" width="7.5" height="7.5"/>
	<rect x="454.5" y="165" fill="#2CB34A" width="7.5" height="7.5"/>
	<rect x="462" y="165" fill="#2CB34A" width="7.5" height="7.5"/>
	<rect x="454.5" y="157.5" fill="#2CB34A" width="7.5" height="7.5"/>
	<rect x="462" y="157.5" fill="#2CB34A" width="7.5" height="7.5"/>
	<rect x="454.5" y="150" fill="#ADDC91" width="7.5" height="7.5"/>
	<rect x="462" y="150" fill="#005E5D" width="7.5" height="7.5"/>
	<rect x="454.5" y="142.5" fill="#101820" width="7.5" height="7.5"/>
	<rect x="462" y="142.5" fill="#ADDC91" width="7.5" height="7.5"/>
	<rect x="469.5" y="165" fill="#2CB34A" width="7.5" height="7.5"/>
	<rect x="454.5" y="172.498" fill="#2CB34A" width="7.5" height="7.501"/>
	<rect x="462" y="172.498" fill="#2CB34A" width="7.5" height="7.501"/>
	<rect x="469.5" y="172.498" fill="#2CB34A" width="7.5" height="7.501"/>
	<rect x="462" y="179.999" fill="#2CB34A" width="7.5" height="7.501"/>
	<rect x="469.5" y="179.999" fill="#2CB34A" width="7.5" height="7.501"/>
	<rect x="477" y="165" fill="#2CB34A" width="7.5" height="7.5"/>
	<rect x="477" y="172.498" fill="#2CB34A" width="7.5" height="7.501"/>
	<rect x="469.5" y="157.5" fill="#2CB34A" width="7.5" height="7.5"/>
	<rect x="477" y="157.5" fill="#2CB34A" width="7.5" height="7.5"/>
	<rect x="469.5" y="150" fill="#005E5D" width="7.5" height="7.5"/>
	<rect x="477" y="150" fill="#ADDC91" width="7.5" height="7.5"/>
	<rect x="469.5" y="142.5" fill="#ADDC91" width="7.5" height="7.5"/>
	<rect x="477" y="142.5" fill="#101820" width="7.5" height="7.5"/>
	<rect x="484.5" y="165" fill="#2CB34A" width="7.5" height="7.5"/>
	<rect x="492" y="165" fill="#2CB34A" width="7.5" height="7.5"/>
	<rect x="484.5" y="157.5" fill="#2CB34A" width="7.5" height="7.5"/>
	<rect x="492" y="157.5" fill="#2CB34A" width="7.5" height="7.5"/>
	<rect x="484.5" y="150" fill="#ADDC91" width="7.5" height="7.5"/>
	<rect x="492" y="150" fill="#2CB34A" width="7.5" height="7.5"/>
	<rect x="484.5" y="142.5" fill="#101820" width="7.5" height="7.5"/>
	<rect x="492" y="142.5" fill="#ADDC91" width="7.5" height="7.5"/>
</g>
</svg>
