<?xml version="1.0" encoding="utf-8"?>
<!-- Generator: Adobe Illustrator 16.0.4, SVG Export Plug-In . SVG Version: 6.00 Build 0)  -->
<!DOCTYPE svg PUBLIC "-//W3C//DTD SVG 1.1//EN" "http://www.w3.org/Graphics/SVG/1.1/DTD/svg11.dtd">
<svg version="1.1" id="Layer_1" xmlns="http://www.w3.org/2000/svg" xmlns:xlink="http://www.w3.org/1999/xlink" x="0px" y="0px"
	 width="165px" height="209px" viewBox="0 0 165 209" enable-background="new 0 0 165 209" xml:space="preserve">
<g>
	<path opacity="0.5" fill="#43484E" d="M165,106.501L165,106.501c-5.523-0.001-10-18.73-10-41.833c0-23.104,4.477-41.833,10-41.833
		V4h-20c0,5.523-13.992,10-31.25,10C96.49,14,82.499,9.523,82.499,4c0,5.523-13.991,10-31.25,10s-31.25-4.477-31.25-10h-20v18.834
		c5.523,0,10,18.729,10,41.833c0,23.104-4.477,41.832-10,41.832v0.001c5.523,0,10,18.729,10,41.833s-4.477,41.833-10,41.833V209h20
		c0-5.522,13.991-10,31.25-10s31.25,4.478,31.25,10c0-5.522,13.991-10,31.251-10c17.258,0,31.25,4.478,31.25,10h20v-18.833
		c-5.523-0.001-10-18.729-10-41.833S159.477,106.502,165,106.501z"/>
	<path fill="#FF931B" d="M165,102.501L165,102.501c-5.523-0.001-10-18.73-10-41.833c0-23.104,4.477-41.833,10-41.833V0h-20
		c0,5.523-13.992,10-31.25,10C96.49,10,82.499,5.523,82.499,0c0,5.523-13.991,10-31.25,10s-31.25-4.477-31.25-10h-20v18.834
		c5.523,0,10,18.729,10,41.833c0,23.104-4.477,41.832-10,41.832v0.001c5.523,0,10,18.729,10,41.833s-4.477,41.833-10,41.833V205h20
		c0-5.522,13.991-10,31.25-10s31.25,4.478,31.25,10c0-5.522,13.991-10,31.251-10c17.258,0,31.25,4.478,31.25,10h20v-18.833
		c-5.523-0.001-10-18.729-10-41.833S159.477,102.502,165,102.501z"/>
	<rect x="19.999" y="20" fill="#7FB8E6" width="125.001" height="165"/>
	<g>
		<defs>
			<rect id="SVGID_1_" x="19.999" y="20" width="125.001" height="165"/>
		</defs>
		<clipPath id="SVGID_2_">
			<use xlink:href="#SVGID_1_"  overflow="visible"/>
		</clipPath>
		<g clip-path="url(#SVGID_2_)">
			<rect x="84.412" y="30.883" fill="#D14124" width="26.471" height="4.412"/>
			<rect x="84.412" y="39.707" fill="#D14124" width="26.471" height="4.411"/>
			<rect x="84.412" y="48.53" fill="#D14124" width="26.471" height="4.412"/>
			<rect x="84.412" y="57.353" fill="#D14124" width="26.471" height="4.413"/>
			<rect x="40" y="66.177" fill="#D14124" width="70.883" height="4.411"/>
			<rect x="40" y="75" fill="#D14124" width="70.883" height="4.412"/>
			<rect x="40" y="83.824" fill="#D14124" width="70.883" height="4.411"/>
			<rect x="40" y="92.646" fill="#D14124" width="70.883" height="4.412"/>
			<rect x="110.883" y="35.294" fill="#D14124" width="44.117" height="4.412"/>
			<rect x="110.883" y="44.118" fill="#D14124" width="44.117" height="4.412"/>
			<rect x="110.883" y="52.941" fill="#D14124" width="44.117" height="4.412"/>
			<rect x="110.883" y="61.766" fill="#D14124" width="44.117" height="4.411"/>
			<rect x="110.883" y="70.588" fill="#D14124" width="44.117" height="4.412"/>
			<rect x="110.883" y="79.412" fill="#D14124" width="44.117" height="4.412"/>
			<rect x="110.883" y="88.235" fill="#D14124" width="44.117" height="4.411"/>
			<rect x="110.883" y="97.059" fill="#D14124" width="44.117" height="4.412"/>
			<rect x="84.412" y="35.294" fill="#FFFFFF" width="26.471" height="4.412"/>
			<rect x="84.412" y="44.118" fill="#FFFFFF" width="26.471" height="4.412"/>
			<rect x="84.412" y="52.941" fill="#FFFFFF" width="26.471" height="4.412"/>
			<rect x="84.412" y="61.766" fill="#FFFFFF" width="26.471" height="4.411"/>
			<rect x="40" y="70.588" fill="#FFFFFF" width="70.883" height="4.412"/>
			<rect x="40" y="79.412" fill="#FFFFFF" width="70.883" height="4.412"/>
			<rect x="40" y="88.235" fill="#FFFFFF" width="70.883" height="4.411"/>
			<rect x="110.883" y="39.707" fill="#FFFFFF" width="44.117" height="4.411"/>
			<rect x="110.883" y="48.53" fill="#FFFFFF" width="44.117" height="4.412"/>
			<rect x="110.883" y="57.353" fill="#FFFFFF" width="44.117" height="4.413"/>
			<rect x="110.883" y="66.177" fill="#FFFFFF" width="44.117" height="4.411"/>
			<rect x="110.883" y="75" fill="#FFFFFF" width="44.117" height="4.412"/>
			<rect x="110.883" y="83.824" fill="#FFFFFF" width="44.117" height="4.411"/>
			<rect x="110.883" y="92.646" fill="#FFFFFF" width="44.117" height="4.412"/>
			<rect x="40.294" y="30.883" fill="#002D72" width="44.118" height="35.294"/>
		</g>
	</g>
	<g>
		<defs>
			<rect id="SVGID_3_" x="37.764" y="40.775" width="109.47" height="144.5"/>
		</defs>
		<clipPath id="SVGID_4_">
			<use xlink:href="#SVGID_3_"  overflow="visible"/>
		</clipPath>
		<g clip-path="url(#SVGID_4_)">
			<g>
				<g>
					<polygon fill="#544741" points="112.912,206.162 112.912,278.826 105.732,278.826 92.125,206.162 					"/>
				</g>
				<g>
					<polygon fill="#746458" points="71.95,206.162 71.95,278.826 79.132,278.826 92.125,206.162 					"/>
				</g>
			</g>
			<g>
				<path fill="#7C6248" d="M130.66,90.404h-1.039h-18.979h-3.078c-3.246,0-5.854-3.076-5.955-6.154h-0.018
					c-0.102,3.078-2.705,6.154-5.947,6.154h-5.521H54.204c-0.154,1.404-0.24,2.828-0.24,4.274c0,21.247,17.224,38.47,38.468,38.47
					c21.246,0,38.471-17.223,38.471-38.47c0-1.763-0.074-3.239-0.162-4.274H130.66z"/>
			</g>
			<g>
				<path fill="#FDCE8C" d="M115.234,212.32c-1.598,0-3.197-0.619-4.402-1.853c-2.379-2.431-2.336-6.332,0.096-8.712
					c5.021-4.912,7.787-11.486,7.787-18.511c0-3.401,2.76-6.159,6.162-6.159c3.398,0,6.158,2.758,6.158,6.159
					c0,10.366-4.082,20.069-11.492,27.319C118.344,211.736,116.789,212.32,115.234,212.32z"/>
			</g>
			<g>
				<g>
					<path fill="#111821" d="M90.123,90.404h5.521c3.242,0,5.846-3.076,5.947-6.154h0.018c0.102,3.078,2.709,6.154,5.955,6.154
						h3.078h18.979h1.039h0.004c-2.127-19.235-18.428-34.196-38.232-34.196c-21.244,0-38.468,17.223-38.468,38.47
						c0-1.446,0.086-2.87,0.24-4.274H90.123z"/>
				</g>
				<g>
					<path fill="#D04327" d="M130.664,98.953h0.076c0.088-1.035,0.162-2.512,0.162-4.274
						C130.902,96.125,130.818,97.549,130.664,98.953z"/>
				</g>
			</g>
			<g>
				<path fill="#FFFFFF" d="M77.557,116.564c3.51,4.615,9.096,7.695,15.387,7.695c6.297,0,11.881-3.08,15.391-7.695H77.557z"/>
			</g>
			<g opacity="0.6">
				<circle fill="#111921" cx="108.334" cy="102.5" r="4.359"/>
			</g>
			<g opacity="0.6">
				<circle fill="#111921" cx="77.558" cy="102.5" r="4.359"/>
			</g>
			<g>
				<path fill="#7C6248" d="M92.432,152.213c3.559,0,6.486-2.426,6.928-6.047v-15.24H85.508v15.239
					C85.947,149.787,88.875,152.213,92.432,152.213z"/>
			</g>
			<path fill="#2A72B8" d="M99.359,145.59v0.576c-0.441,3.621-3.369,6.047-6.928,6.047c-0.102,0-0.205-0.006-0.307-0.008v5.1
				c0.102,0.012,0.205,0.022,0.307,0.026v48.831h16.646c0-1.6,0.615-3.197,1.85-4.406c0.709-0.692,1.367-1.423,1.984-2.179v-32.646
				c3.625,4.459,5.803,10.135,5.803,16.313c0,3.401,2.76,6.16,6.162,6.16c3.398,0,6.158-2.759,6.158-6.16
				C131.035,164.401,117.326,148.7,99.359,145.59z"/>
			<g>
				<path fill="#FDCE8C" d="M70.194,212.119c-1.573,0-3.146-0.598-4.346-1.795c-7.254-7.225-11.25-16.842-11.25-27.079
					c0-3.401,2.758-6.159,6.158-6.159c3.403,0,6.161,2.758,6.161,6.159c0,6.938,2.709,13.455,7.625,18.352
					c2.409,2.399,2.418,6.3,0.019,8.712C73.356,211.516,71.775,212.119,70.194,212.119z"/>
			</g>
			<path fill="#358CC8" d="M92.125,154.029v-1.83c-3.418-0.135-6.191-2.518-6.617-6.034v-0.435
				c-17.589,3.42-30.909,18.939-30.909,37.515c0,3.401,2.758,6.16,6.158,6.16c3.403,0,6.161-2.759,6.161-6.16
				c0-5.729,1.873-11.028,5.032-15.319v30.668c0.78,1.055,1.643,2.059,2.592,3.003c1.258,1.253,1.857,2.917,1.801,4.565h16.088
				v-52.133H92.125z"/>
			<rect x="112.912" y="269.713" fill="#544741" width="3.037" height="9.113"/>
			<path fill="#544741" d="M125.062,278.826c0-5.033-4.08-9.113-9.113-9.113s-9.113,4.08-9.113,9.113"/>
			<rect x="68.912" y="269.713" fill="#746458" width="3.039" height="9.113"/>
			<path fill="#746458" d="M59.799,278.826c0-5.033,4.08-9.113,9.112-9.113c5.035,0,9.114,4.08,9.114,9.113"/>
		</g>
	</g>
	<rect x="35.184" y="30.883" fill="#919395" width="5.11" height="154.393"/>
</g>
</svg>
