<?xml version="1.0" encoding="utf-8"?>
<!-- Generator: Adobe Illustrator 16.0.4, SVG Export Plug-In . SVG Version: 6.00 Build 0)  -->
<!DOCTYPE svg PUBLIC "-//W3C//DTD SVG 1.1//EN" "http://www.w3.org/Graphics/SVG/1.1/DTD/svg11.dtd">
<svg version="1.1" id="Layer_1" xmlns="http://www.w3.org/2000/svg" xmlns:xlink="http://www.w3.org/1999/xlink" x="0px" y="0px"
	 width="165px" height="209px" viewBox="0 0 165 209" enable-background="new 0 0 165 209" xml:space="preserve">
<path opacity="0.5" fill="#43484E" d="M165,106.5L165,106.5c-5.521-0.001-9.999-18.73-9.999-41.833s4.478-41.832,9.999-41.833V4h-20
	c0,5.523-13.991,10-31.25,10C96.492,14,82.5,9.523,82.5,4c0,5.523-13.991,10-31.25,10C33.992,14,20,9.523,20,4H0v18.834
	c5.523,0,10,18.729,10,41.833S5.523,106.5,0,106.5l0,0c5.523,0,10,18.73,10,41.834s-4.477,41.832-10,41.832V209h20
	c0-5.522,13.992-10,31.25-10c17.259,0,31.25,4.478,31.25,10c0-5.522,13.992-10,31.25-10c17.259,0,31.25,4.478,31.25,10h20v-18.834
	c-5.521,0-9.999-18.729-9.999-41.832C155.001,125.23,159.479,106.502,165,106.5z"/>
<path fill="#FF931B" d="M165,102.5L165,102.5c-5.521-0.001-9.999-18.73-9.999-41.833s4.478-41.832,9.999-41.833V0h-20
	c0,5.523-13.991,10-31.25,10C96.492,10,82.5,5.523,82.5,0c0,5.523-13.991,10-31.25,10C33.992,10,20,5.523,20,0H0v18.834
	c5.523,0,10,18.729,10,41.833S5.523,102.5,0,102.5l0,0c5.523,0,10,18.73,10,41.834s-4.477,41.832-10,41.832V205h20
	c0-5.522,13.992-10,31.25-10c17.259,0,31.25,4.478,31.25,10c0-5.522,13.992-10,31.25-10c17.259,0,31.25,4.478,31.25,10h20v-18.834
	c-5.521,0-9.999-18.729-9.999-41.832C155.001,121.23,159.479,102.502,165,102.5z"/>
<rect x="20" y="20" fill="#CCE3F5" width="125" height="165"/>
<g>
	<defs>
		<rect id="SVGID_1_" x="20" y="20" width="125" height="165"/>
	</defs>
	<clipPath id="SVGID_2_">
		<use xlink:href="#SVGID_1_"  overflow="visible"/>
	</clipPath>
	<rect x="84.412" y="30.883" clip-path="url(#SVGID_2_)" fill="#D14124" width="26.471" height="4.411"/>
	<rect x="84.412" y="39.706" clip-path="url(#SVGID_2_)" fill="#D14124" width="26.471" height="4.411"/>
	<rect x="84.412" y="48.529" clip-path="url(#SVGID_2_)" fill="#D14124" width="26.471" height="4.412"/>
	<rect x="84.412" y="57.353" clip-path="url(#SVGID_2_)" fill="#D14124" width="26.471" height="4.413"/>
	<rect x="40.002" y="66.177" clip-path="url(#SVGID_2_)" fill="#D14124" width="70.881" height="4.411"/>
	<rect x="40.002" y="75" clip-path="url(#SVGID_2_)" fill="#D14124" width="70.881" height="4.411"/>
	<rect x="40.002" y="83.823" clip-path="url(#SVGID_2_)" fill="#D14124" width="70.881" height="4.411"/>
	<rect x="40.002" y="92.646" clip-path="url(#SVGID_2_)" fill="#D14124" width="70.881" height="4.412"/>
	<rect x="110.883" y="35.294" clip-path="url(#SVGID_2_)" fill="#D14124" width="44.117" height="4.412"/>
	<rect x="110.883" y="44.117" clip-path="url(#SVGID_2_)" fill="#D14124" width="44.117" height="4.412"/>
	<rect x="110.883" y="52.941" clip-path="url(#SVGID_2_)" fill="#D14124" width="44.117" height="4.411"/>
	<rect x="110.883" y="61.766" clip-path="url(#SVGID_2_)" fill="#D14124" width="44.117" height="4.411"/>
	<rect x="110.883" y="70.588" clip-path="url(#SVGID_2_)" fill="#D14124" width="44.117" height="4.412"/>
	<rect x="110.883" y="79.411" clip-path="url(#SVGID_2_)" fill="#D14124" width="44.117" height="4.412"/>
	<rect x="110.883" y="88.234" clip-path="url(#SVGID_2_)" fill="#D14124" width="44.117" height="4.412"/>
	<rect x="110.883" y="97.059" clip-path="url(#SVGID_2_)" fill="#D14124" width="44.117" height="4.411"/>
	<rect x="84.412" y="35.294" clip-path="url(#SVGID_2_)" fill="#FFFFFF" width="26.471" height="4.412"/>
	<rect x="84.412" y="44.117" clip-path="url(#SVGID_2_)" fill="#FFFFFF" width="26.471" height="4.412"/>
	<rect x="84.412" y="52.941" clip-path="url(#SVGID_2_)" fill="#FFFFFF" width="26.471" height="4.411"/>
	<rect x="84.412" y="61.766" clip-path="url(#SVGID_2_)" fill="#FFFFFF" width="26.471" height="4.411"/>
	<rect x="40.002" y="70.588" clip-path="url(#SVGID_2_)" fill="#FFFFFF" width="70.881" height="4.412"/>
	<rect x="40.002" y="79.411" clip-path="url(#SVGID_2_)" fill="#FFFFFF" width="70.881" height="4.412"/>
	<rect x="40.002" y="88.234" clip-path="url(#SVGID_2_)" fill="#FFFFFF" width="70.881" height="4.412"/>
	<rect x="110.883" y="39.706" clip-path="url(#SVGID_2_)" fill="#FFFFFF" width="44.117" height="4.411"/>
	<rect x="110.883" y="48.529" clip-path="url(#SVGID_2_)" fill="#FFFFFF" width="44.117" height="4.412"/>
	<rect x="110.883" y="57.353" clip-path="url(#SVGID_2_)" fill="#FFFFFF" width="44.117" height="4.413"/>
	<rect x="110.883" y="66.177" clip-path="url(#SVGID_2_)" fill="#FFFFFF" width="44.117" height="4.411"/>
	<rect x="110.883" y="75" clip-path="url(#SVGID_2_)" fill="#FFFFFF" width="44.117" height="4.411"/>
	<rect x="110.883" y="83.823" clip-path="url(#SVGID_2_)" fill="#FFFFFF" width="44.117" height="4.411"/>
	<rect x="110.883" y="92.646" clip-path="url(#SVGID_2_)" fill="#FFFFFF" width="44.117" height="4.412"/>
	<rect x="40.295" y="30.883" clip-path="url(#SVGID_2_)" fill="#002D72" width="44.117" height="35.294"/>
</g>
<rect x="35.186" y="30.883" fill="#919395" width="5.109" height="154.393"/>
<g>
	<defs>
		<rect id="SVGID_3_" x="20" y="20" width="125" height="165"/>
	</defs>
	<clipPath id="SVGID_4_">
		<use xlink:href="#SVGID_3_"  overflow="visible"/>
	</clipPath>
	<g clip-path="url(#SVGID_4_)">
		<path fill="#001B42" d="M66.181,207.326c-1.573,0-3.146-0.598-4.347-1.794c-7.254-7.225-11.249-16.842-11.249-27.08
			c0-3.4,2.759-6.158,6.158-6.158c3.403,0,6.161,2.758,6.161,6.158c0,6.939,2.709,13.455,7.625,18.352
			c2.408,2.399,2.418,6.3,0.018,8.712C69.342,206.724,67.762,207.326,66.181,207.326z"/>
		<circle fill="#89684A" cx="88.418" cy="89.886" r="38.469"/>
		<path fill="#101820" d="M88.419,51.416c-21.246,0-38.47,17.224-38.47,38.47c0,1.916,0.145,3.798,0.415,5.639
			c2.522-0.255,4.499-2.359,4.499-4.949v-2.464c0,0,0-5,5-5c0,0,19.291,1.5,28.555,1.5c9.266,0,28.557-1.5,28.557-1.5c5,0,5,5,5,5
			v2.464c0,2.59,1.976,4.694,4.498,4.949c0.271-1.841,0.415-3.723,0.415-5.639C126.888,68.64,109.664,51.416,88.419,51.416z"/>
		<polygon fill="#544741" points="108.898,201.37 108.898,274.034 101.719,274.034 88.111,201.37 		"/>
		<polygon fill="#746458" points="67.937,201.37 67.937,274.034 75.118,274.034 88.111,201.37 		"/>
		<path fill="#001B42" d="M111.221,207.528c-1.598,0-3.197-0.619-4.402-1.854c-2.379-2.431-2.337-6.332,0.096-8.711
			c5.021-4.912,7.787-11.486,7.787-18.512c0-3.4,2.759-6.158,6.162-6.158c3.398,0,6.158,2.758,6.158,6.158
			c0,10.367-4.082,20.069-11.492,27.32C114.33,206.944,112.775,207.528,111.221,207.528z"/>
		<path fill="#FFFFFF" d="M73.543,111.772c3.51,4.615,9.095,7.695,15.387,7.695c6.296,0,11.881-3.08,15.391-7.695H73.543z"/>
		<circle fill="#111921" cx="104.32" cy="97.708" r="4.359"/>
		<circle fill="#111921" cx="73.545" cy="97.708" r="4.359"/>
		<path fill="#001B42" d="M101.557,142.431c0-0.012,0.004-0.024,0.004-0.036c0,0-2.685-6.73-13.143-6.73
			c-10.459,0-13.143,6.73-13.143,6.73c0,0.104-0.076,0.205-0.066,0.308c-14.432,5.466-24.624,19.427-24.624,35.75
			c0,3.402,2.759,6.16,6.158,6.16c3.403,0,6.161-2.758,6.161-6.16c0-5.729,1.873-11.027,5.032-15.318v30.667
			c0.78,1.056,1.642,2.06,2.593,3.003c1.258,1.254,1.857,2.918,1.801,4.566h16.088h16.646c0-1.601,0.615-3.197,1.85-4.406
			c0.709-0.693,1.367-1.424,1.984-2.179V162.14c3.625,4.458,5.803,10.135,5.803,16.312c0,3.402,2.759,6.16,6.162,6.16
			c3.398,0,6.158-2.758,6.158-6.16C127.021,161.85,116.377,147.691,101.557,142.431z"/>
		<path fill="#7FB8E6" d="M97.807,142.61c0-3.498-3.615-6.334-9.307-6.334s-9.305,2.836-9.305,6.334
			c0,0.098,9.305,36.382,9.305,36.382S97.807,142.621,97.807,142.61z"/>
		<path fill="#89684A" d="M88.418,146.42c0,0,6.486-1.425,6.928-5.046v-15.241H81.494v15.239
			C81.933,144.995,88.418,146.42,88.418,146.42z"/>
		<rect x="108.898" y="264.921" fill="#544741" width="3.037" height="9.113"/>
		<path fill="#544741" d="M121.049,274.034c0-5.033-4.08-9.113-9.113-9.113s-9.113,4.08-9.113,9.113"/>
		<rect x="64.898" y="264.921" fill="#746458" width="3.038" height="9.113"/>
		<path fill="#746458" d="M55.785,274.034c0-5.033,4.08-9.113,9.113-9.113c5.034,0,9.113,4.08,9.113,9.113"/>
		<path fill="#C0272D" d="M85.797,155.82c-0.242,1.585-0.549,5.209-0.851,9.307c1.907,7.444,3.554,13.865,3.554,13.865
			s1.574-6.151,3.428-13.393c-0.312-4.289-0.635-8.134-0.885-9.779c-0.713-4.677-1.107-4.739-1.107-4.739s0.849-1.311,0.849-2.792
			c0-1.48-1.821-1.479-2.364-1.479c-0.545,0-2.365-0.002-2.365,1.479c0,1.481,0.848,2.792,0.848,2.792S86.509,151.144,85.797,155.82
			z"/>
	</g>
</g>
</svg>
